# xmcd
#
# Track frame offsets:
#	150
#	26932
#	48596
#	66975
#	82428
#	115209
#	140488
#	156393
#	174284
#	192377
#
# Disc length: 2759 seconds
#
# Revision: 2
# Processed by: cddbd v1.5.2PL0 Copyright (c) Steve Scherf et al.
# Submitted via: audiograbber 1.83.01
#
DISCID=980ac50a
DTITLE=Various Artist - Privilege - Best Of Vol. 04
DYEAR=1900
DGENRE=Dance
TTITLE0=Malone Industry feat. Laurie Smpson - Dolly
TTITLE1=LU COLOMBO - Maracaibo 2001
TTITLE2=SDR SALSA and MICHAEL - Sobrevivire
TTITLE3=IPANEMA - It's Time For  Carnival
TTITLE4=NEGROCAN - Cada Vez
TTITLE5=FOGO - Another Star 2000
TTITLE6=LOS TOMATOS - Asereje (The Ketchup Song)
TTITLE7=DHANY - Quiero Respirar
TTITLE8=NEJA - Restless
TTITLE9=MARVIN KEY - YMCA
EXTD=
EXTT0=
EXTT1=
EXTT2=
EXTT3=
EXTT4=
EXTT5=
EXTT6=
EXTT7=
EXTT8=
EXTT9=
PLAYORDER=
